<?xml version="1.0" encoding="UTF-8"?><svg id="a" xmlns="http://www.w3.org/2000/svg" viewBox="0 0 136.02 136.02"><path d="M4.4.78h127.22c2,0,3.62,1.62,3.62,3.62v127.22c0,2-1.62,3.62-3.62,3.62H4.4c-2,0-3.62-1.62-3.62-3.62V4.4C.78,2.4,2.4.78,4.4.78ZM12.34,127.27h111.3c2,0,3.62-1.62,3.62-3.62V12.35c0-2-1.62-3.62-3.62-3.62H12.34c-2,0-3.62,1.62-3.62,3.62v111.31c0,2,1.62,3.62,3.62,3.62Z" style="fill:#fff; stroke-width:0px;"/><path d="M70.89,93.22c-2.9,0-5.57.03-8.23-.04-.35,0-.87-.5-1.01-.88-1.18-3.01-2.3-6.04-3.4-9.08-.38-1.05-.82-1.03-2.68-1.03-3.8,0-7.35,0-11.06,0-1.92,0-2.39-.09-2.78,1.02-1.18,3.33-2.42,6.64-3.65,9.97h-8.91c.18-.49.32-.91.48-1.33,5.35-14.04,10.72-28.07,16.05-42.12.4-1.05.85-1.2,2.32-1.2,1.31,0,2.62,0,3.97,0,1.43,0,1.98.06,2.39,1.16,4.61,12.22,9.26,24.42,13.9,36.63.85,2.24,1.7,4.48,2.61,6.9ZM56.18,75.87c-2.04-5.81-4.04-11.51-6.15-17.49-2.19,6.01-4.27,11.71-6.38,17.49h12.53Z" style="fill:#fff; stroke-width:0px;"/><path d="M81.2,79.49c-.13,3.02,2.36,6.54,5.34,7.64,4.09,1.51,8.04.15,11.15-3.89,2.28.63,4.59,1.28,7.08,1.97-.37.65-.64,1.27-1.03,1.81-3.87,5.34-9.32,7.07-15.63,6.77-7.41-.36-13.44-5.11-15.41-12.12-2.02-7.19.75-15.11,6.7-19.15,8.62-5.85,21.49-2.61,25.72,6.47,1.41,3.02,1.69,6.2,1.51,9.48-.05,1-.63.96-1.32.96-4.55,0-9.1,0-13.65,0-3.11,0-6.21,0-9.32,0-.38,0-.76.04-1.14.07ZM97.89,73.86c-.25-4.74-4.09-8.27-8.7-8.12-4.49.14-8.22,3.8-8.21,8.12h16.91Z" style="fill:#fff; stroke-width:0px;"/></svg>