<?xml version="1.0" encoding="UTF-8"?><svg id="a" xmlns="http://www.w3.org/2000/svg" viewBox="0 0 136.02 136.02"><path d="M4.36.78h127.31c1.98,0,3.58,1.6,3.58,3.58v127.31c0,1.98-1.6,3.58-3.58,3.58H4.36c-1.98,0-3.58-1.6-3.58-3.58V4.36C.78,2.38,2.38.78,4.36.78ZM127.27,123.73V12.34c0-1.98-1.6-3.58-3.58-3.58H12.31c-1.98,0-3.58,1.6-3.58,3.58v111.39c0,1.98,1.6,3.58,3.58,3.58h111.39c1.98,0,3.58-1.6,3.58-3.58Z" style="fill:#fff; stroke-width:0px;"/><path d="M45.04,93.16h-5.7c-.82,0-1.48-.66-1.48-1.48v-43.09c.34-.04.67-.11,1-.11,5.95,0,11.9-.05,17.84.01,7.06.08,12.78,5.24,14.09,12.62,1.18,6.64-2.71,13.78-8.96,16.13-1.56.59-3.3.87-4.98.94-2.92.12-5.85.07-8.86.05-.82,0-1.49.66-1.49,1.48v11.97c0,.82-.66,1.48-1.48,1.48ZM48.01,70.59c2.62.01,5.19.05,7.74,0s4.87-1.51,5.82-3.85c.56-1.38.72-2.84.53-4.35-.41-3.27-2.21-5.9-4.7-6.08-3.11-.23-6.24-.11-9.41-.08-.81,0-1.47.66-1.47,1.48v11.42c0,.81.66,1.47,1.47,1.48Z" style="fill:#fff; stroke-width:0px;"/><path d="M100.06,65.21l-1.77,2.65c-.42.63-1.2.85-1.86.54-1.77-.82-3.47-1.65-5.23-2.31-1.87-.7-3.86-.75-5.81-.18-1.48.43-2.43,1.4-2.59,2.96-.16,1.53.72,2.57,2,3.06,1.95.74,4.01,1.19,5.99,1.86,2.23.75,4.54,1.37,6.61,2.44,7.26,3.77,5.2,12.84-.03,15.58-3.52,1.84-7.24,2.23-11.08,1.89-4.26-.38-8.17-1.82-11.67-4.31-.28-.2-.52-.45-.81-.71.78-1.32,1.55-2.6,2.31-3.88.4-.67,1.25-.91,1.94-.55,1.55.8,3.06,1.61,4.62,2.31,2.14.95,4.43,1.37,6.78,1.15.65-.06,1.3-.18,1.92-.39,1.43-.49,2.45-1.41,2.54-3,.08-1.47-.85-2.43-2.08-2.89-2.16-.81-4.4-1.41-6.59-2.12-1.74-.56-3.56-.98-5.2-1.76-5.81-2.77-6.95-9.17-2.55-13.92,2.12-2.29,4.81-3.48,7.84-3.85,5.22-.64,10.1.25,14.41,3.47,0,0,0,0,.01,0,.61.46.73,1.33.31,1.96Z" style="fill:#fff; stroke-width:0px;"/></svg>