<?xml version="1.0" encoding="UTF-8"?><svg id="a" xmlns="http://www.w3.org/2000/svg" viewBox="0 0 136.02 136.02"><path d="M4.63.78h126.76c2.13,0,3.85,1.72,3.85,3.85v126.76c0,2.13-1.72,3.85-3.85,3.85H4.63c-2.13,0-3.85-1.72-3.85-3.85V4.63C.78,2.51,2.51.78,4.63.78ZM8.75,12.57v110.84c0,2.13,1.72,3.85,3.85,3.85h110.84c2.13,0,3.85-1.72,3.85-3.85V12.57c0-2.13-1.72-3.85-3.85-3.85H12.6c-2.13,0-3.85,1.72-3.85,3.85Z" style="fill:#fff; stroke-width:0px;"/><path d="M50.66,78.23v14.92h-8.55v-44.59c.25-.03.5-.07.75-.07,6.08,0,12.16-.07,18.24.02,7.09.1,13.17,5.83,13.99,13.03.86,7.56-3.66,14.52-10.67,16.24-1.55.38-3.2.4-4.81.43-2.92.06-5.84.02-8.95.02ZM50.76,56.22v14.36c3.56,0,7.05.09,10.53-.04,1.77-.06,3.08-1.17,3.95-2.7,1.03-1.81,1.36-3.76,1.03-5.82-.51-3.13-2.32-5.6-4.75-5.75-3.56-.23-7.14-.06-10.76-.06Z" style="fill:#fff; stroke-width:0px;"/><path d="M88.89,93.17h-8.39v-32.89h7.7v6.8c2.87-4.6,6.27-7.64,11.8-7.24v7.52c-1.37.22-2.8.26-4.09.69-1.55.52-3.09,1.21-4.45,2.11-1.79,1.19-2.69,2.87-2.62,5.21.15,5.42.05,10.85.05,16.27v1.53Z" style="fill:#fff; stroke-width:0px;"/></svg>