<?xml version="1.0" encoding="UTF-8"?><svg id="a" xmlns="http://www.w3.org/2000/svg" viewBox="0 0 136.02 136.02"><path d="M131.62,135.24H4.4c-2,0-3.62-1.62-3.62-3.62V4.4C.78,2.4,2.4.78,4.4.78h127.22c2,0,3.62,1.62,3.62,3.62v127.22c0,2-1.62,3.62-3.62,3.62ZM123.69,8.76H12.38c-2,0-3.62,1.62-3.62,3.62v111.3c0,2,1.62,3.62,3.62,3.62h111.3c2,0,3.62-1.62,3.62-3.62V12.37c0-2-1.62-3.62-3.62-3.62Z" style="fill:#fff; stroke-width:0px;"/><path d="M77.21,89.25c-2.84,0-5.59.03-8.33-.04-.3,0-.7-.55-.85-.92-1.16-3.01-2.31-6.03-3.38-9.08-.3-.85-.71-1.12-1.6-1.11-4.42.05-8.84.05-13.25,0-.96-.01-1.37.33-1.67,1.21-1.05,3.01-2.19,5.98-3.25,8.99-.25.72-.59,1.01-1.39.99-2.57-.05-5.15-.02-7.9-.02.18-.53.31-.94.46-1.33,5.36-14.03,10.73-28.06,16.06-42.1.36-.95.76-1.33,1.85-1.33,1.81,0,3.58,0,5.38.02.71,0,1.07.2,1.34.9,5.42,14.33,10.88,28.66,16.32,42.98.09.23.13.49.22.86ZM50.08,71.85h12.51c-2.04-5.79-4.02-11.43-6.13-17.44-2.21,6.03-4.27,11.67-6.38,17.44Z" style="fill:#fff; stroke-width:0px;"/><path d="M89.76,89.19h-8.28v-32.89h8.28v32.89Z" style="fill:#fff; stroke-width:0px;"/><path d="M81.47,51.56v-8.22h8.3v8.22h-8.3Z" style="fill:#fff; stroke-width:0px;"/></svg>