<?xml version="1.0" encoding="UTF-8"?><svg id="a" xmlns="http://www.w3.org/2000/svg" viewBox="0 0 136.02 136.02"><path d="M9.05,64.22c0,.99-.14,1.79-.42,2.41-.28.62-.85,1.14-1.7,1.54.86.38,1.43.9,1.7,1.54.28.62.42,1.42.42,2.38v5.69c0,1.03.19,1.76.58,2.19.38.45,1.05.68,1.99.68h2.61c.54,0,.8.27.8.8v.84c0,.54-.27.8-.8.8h-2.61c-1.89,0-3.25-.41-4.08-1.22-.81-.81-1.22-2.18-1.22-4.08v-5.69c0-.96-.19-1.65-.58-2.06-.38-.43-1.05-.64-1.99-.64H1.17c-.54,0-.8-.27-.8-.8v-.84c0-.54.27-.8.8-.8h2.57c.94,0,1.61-.21,1.99-.64.38-.43.58-1.13.58-2.09v-5.66c0-1.91.41-3.27,1.22-4.08.84-.81,2.2-1.22,4.08-1.22h2.61c.54,0,.8.27.8.8v.84c0,.54-.27.8-.8.8h-2.61c-.94,0-1.61.23-1.99.68-.38.45-.58,1.18-.58,2.19v5.66ZM34.96,52.93c.54,0,.8.27.8.8v2.12c0,.54-.27.8-.8.8h-2.09c-.54,0-.8-.27-.8-.8v-2.12c0-.54.27-.8.8-.8h2.09ZM34.96,61.29c.54,0,.8.27.8.8v11.42c0,3.15-.74,5.44-2.22,6.85-1.46,1.44-3.32,2.16-5.6,2.16-1.69,0-3.3-.32-4.83-.96-.34-.13-.51-.35-.51-.68,0-.13.03-.26.1-.39l.32-.77c.13-.34.35-.51.68-.51.15,0,.27.02.35.06,1.35.49,2.65.74,3.89.74,1.57,0,2.8-.49,3.7-1.48.9-.99,1.35-2.66,1.35-5.02v-9.71h-8.97c-.54,0-.8-.27-.8-.8v-.9c0-.54.27-.8.8-.8h10.93ZM59.64,63.12c-.13.47-.45.66-.96.58-1.22-.19-2.19-.29-2.89-.29-1.07,0-1.97.18-2.7.55-.73.34-1.09.83-1.09,1.48,0,.56.29,1.05.87,1.48.58.43,1.38.71,2.41.84,1.91.24,3.32.79,4.25,1.67.94.88,1.42,1.96,1.42,3.25,0,1.5-.59,2.71-1.77,3.63-1.18.92-2.84,1.38-4.98,1.38-1.44,0-2.88-.12-4.34-.35-.45-.06-.68-.3-.68-.71,0-.11.01-.19.03-.26l.19-.84c.09-.49.4-.71.93-.64,1.24.21,2.53.32,3.86.32,1.29,0,2.27-.24,2.96-.71.71-.47,1.06-1.08,1.06-1.83,0-.62-.27-1.16-.8-1.61-.51-.45-1.33-.73-2.44-.84-1.78-.17-3.17-.7-4.18-1.58-1.01-.9-1.51-1.97-1.51-3.22,0-1.31.55-2.38,1.64-3.22,1.09-.84,2.62-1.25,4.57-1.25,1.26,0,2.53.12,3.79.35.43.06.64.3.64.71,0,.11-.01.19-.03.26l-.22.84ZM100.26,62.22c0-.47.25-.76.74-.87,1.72-.26,3.54-.39,5.47-.39,2.4,0,4.14.5,5.21,1.51,1.07.99,1.61,2.65,1.61,4.98v9.1c0,.54-.27.8-.8.8h-1.13c-.54,0-.8-.27-.8-.8v-9.1c0-1.5-.31-2.55-.93-3.15-.62-.6-1.67-.9-3.15-.9-1.03,0-2.19.04-3.47.13v13.02c0,.54-.27.8-.8.8h-1.13c-.54,0-.8-.27-.8-.8v-14.34ZM126.98,58.56c0-1.01-.19-1.74-.58-2.19-.38-.45-1.05-.68-1.99-.68h-2.61c-.54,0-.8-.27-.8-.8v-.84c0-.54.27-.8.8-.8h2.61c1.89,0,3.24.41,4.05,1.22.84.81,1.25,2.18,1.25,4.08v5.66c0,.96.19,1.66.58,2.09.38.43,1.05.64,1.99.64h2.57c.54,0,.8.27.8.8v.84c0,.54-.27.8-.8.8h-2.57c-.94,0-1.61.21-1.99.64-.38.41-.58,1.09-.58,2.06v5.69c0,1.91-.41,3.27-1.22,4.08-.81.81-2.18,1.22-4.08,1.22h-2.61c-.54,0-.8-.27-.8-.8v-.84c0-.54.27-.8.8-.8h2.61c.94,0,1.61-.23,1.99-.68.38-.43.58-1.16.58-2.19v-5.69c0-.96.14-1.76.42-2.38.28-.64.85-1.16,1.7-1.54-.86-.41-1.43-.92-1.7-1.54-.28-.62-.42-1.43-.42-2.41v-5.66Z" style="fill:#fff; stroke-width:0px;"/><path d="M80.15,73.73c4.42,6.03,8.75-1.68,8.74-6.32,0-5.48-5.56-8.54-8.74-8.54-5.11,0-9.97,4.22-9.97,9.99,0,6.42,5.57,9.97,9.97,9.97-.99-.14-4.31-.85-4.35-8.49-.03-5.16,1.68-7.23,4.35-6.32.06.02,2.94,1.16,2.94,4.86s-2.93,4.83-2.93,4.83h0Z" style="fill:#fff; fill-rule:evenodd; stroke-width:0px;"/><path d="M80.15,64.03c-2.92-1.01-6.5,1.4-6.5,6.22,0,7.87,5.83,8.59,6.54,8.59,5.11,0,9.97-4.22,9.97-9.99,0-6.42-5.57-9.97-9.97-9.97,1.22-.17,6.56,1.32,6.56,8.62,0,4.76-3.99,7.36-6.59,6.25-.06-.02-2.94-1.16-2.94-4.86s2.92-4.85,2.92-4.85h0Z" style="fill:#fff; fill-rule:evenodd; stroke-width:0px;"/></svg>