<?xml version="1.0" encoding="UTF-8"?><svg id="a" xmlns="http://www.w3.org/2000/svg" viewBox="0 0 136.02 136.02"><path d="M10.48,34.3C-1.19,51.08.25,72.89,9.17,90.76c.21.43.43.85.65,1.27l.41.8c.08.16.17.31.26.46.15.29.31.55.47.83l.85,1.46.49.8.99,1.55.42.65c.47.69.94,1.38,1.43,2.06l.28.38c.42.58.86,1.16,1.3,1.73l.49.63,1.2,1.48.46.55c.55.65,1.11,1.29,1.68,1.92.06.06.08.08.1.11.56.61,1.13,1.21,1.71,1.8l.55.55,1.36,1.34.56.54c.61.58,1.23,1.14,1.87,1.7l2.04,1.73.7.56,1.41,1.1.75.58,1.59,1.14.74.52c.51.35,1.02.68,1.54,1.02l.67.45c.8.51,1.6,1,2.41,1.48l.67.41,1.81,1.01c.33.18.67.35,1,.52l1.29.67.3.14.54.26,2.05.95.43.19c.79.35,1.59.68,2.39.99l.58.23,2.26.84.29.1c.83.29,1.67.56,2.51.82l.61.18c.82.26,1.71.58,2.6.73,56.44,10.29,72.82-33.92,72.82-33.92-13.77,17.94-38.2,22.67-61.41,17.4-.88-.2-1.73-.47-2.58-.73l-.64-.19c-.83-.26-1.66-.53-2.49-.81l-.34-.12c-.73-.26-1.47-.53-2.19-.81l-.62-.25c-.8-.31-1.59-.64-2.37-.99l-.47-.21-2-.93-.58-.28c-.52-.25-1.03-.52-1.55-.82l-1.03-.54c-.63-.33-1.24-.68-1.85-1.04l-.63-.35c-.81-.48-1.62-.97-2.41-1.48-.22-.14-.43-.29-.65-.43l-1.71-1.14c-.19-.12-.41-.26-.55-.39l-1.62-1.17-.72-.54-1.46-1.15-.65-.52-1.82-1.54c-.07-.06-.14-.11-.21-.16l-1.92-1.74-.54-.52-1.37-1.36-.54-.54c-.58-.59-1.14-1.18-1.65-1.79-.03-.03-.06-.06-.08-.09-.58-.64-1.16-1.29-1.71-1.95l-.41-.54-1.24-1.52-.41-.56-1.43-1.9c-12.93-17.52-17.56-41.75-7.28-61.61M46.7,20.17c-8.44,12.15-7.98,28.44-1.4,41.25,1.1,2.16,2.35,4.24,3.73,6.23,1.27,1.81,2.67,3.97,4.34,5.42.61.67,1.24,1.32,1.9,1.97l.49.49c.63.61,1.27,1.21,1.93,1.8.03.02.05.05.08.07.75.66,1.51,1.24,2.28,1.89l.51.4c.77.6,1.56,1.17,2.37,1.73l.07.05c.35.25.72.47,1.08.71.17.11.34.23.51.34.58.37,1.16.73,1.75,1.07l.25.14,1.55.82c.18.1.41.19.55.29l1.08.56c.05.03.11.05.16.07.74.37,1.5.72,2.26,1.05l.49.21c.61.26,1.23.51,1.85.75l.79.29c.56.21,1.13.4,1.7.59l.77.25c.81.25,1.65.58,2.46.71,43.58,7.22,53.64-26.38,53.64-26.38-9.07,13.06-26.62,19.29-45.37,14.42-.83-.22-1.65-.46-2.47-.71-.25-.07-.49-.16-.74-.24l-1.73-.59-.82-.29c-.62-.24-1.24-.49-1.85-.75l-.5-.21c-.77-.33-1.53-.69-2.27-1.06l-1.14-.58-.66-.34c-.48-.26-.97-.53-1.44-.81l-.35-.19c-.59-.35-1.17-.7-1.75-1.07-.18-.11-.35-.23-.53-.35l-1.13-.75c-.8-.55-1.58-1.13-2.35-1.72l-.54-.41c-8.24-6.48-14.7-15.33-17.8-25.36-3.24-10.41-2.54-22.09,3.07-31.57M77.17,9.62c-4.97,7.36-5.46,16.42-2.01,24.5,3.64,8.58,11.1,15.31,19.81,18.55l1.08.41.48.15,1.55.41c24.06,4.65,30.58-12.35,32.32-14.85-5.72,8.23-15.32,10.2-27.11,7.34-.93-.23-1.95-.56-2.85-.88-1.15-.41-2.28-.88-3.39-1.41-2.09-1.01-4.08-2.22-5.94-3.62-10.55-8-17.1-23.31-10.22-35.74" style="fill:#fff; stroke-width:0px;"/></svg>