<?xml version="1.0" encoding="UTF-8"?><svg id="a" xmlns="http://www.w3.org/2000/svg" viewBox="0 0 136.02 136.02"><path d="M124.49,68.38c0,10.43-.01,20.85.02,31.28,0,1.06-.32,1.65-1.25,2.19-17.94,10.33-35.86,20.69-53.76,31.08-.89.51-1.49.47-2.36-.03-17.96-10.38-35.93-20.73-53.92-31.05-1.09-.62-1.51-1.25-1.51-2.55.05-20.68.04-41.35.01-62.03,0-1.05.3-1.63,1.23-2.17C30.9,24.8,48.83,14.45,66.73,4.07c1.08-.63,1.84-.66,2.95-.02,17.83,10.34,35.69,20.63,53.56,30.9.92.53,1.28,1.09,1.28,2.16-.04,10.43-.02,20.85-.02,31.28ZM28.16,68.79c0,7.38.01,14.76-.02,22.14,0,.89.26,1.43,1.06,1.9,12.69,7.33,25.37,14.68,38.02,22.06.85.49,1.45.46,2.26-.03,12.59-7.5,25.19-14.97,37.81-22.42.8-.47,1.08-.98,1.08-1.88-.02-14.85-.02-29.69,0-44.54,0-.9-.26-1.44-1.07-1.9-12.7-7.21-25.39-14.46-38.06-21.72-.75-.43-1.29-.44-2.04,0-12.62,7.45-25.25,14.89-37.9,22.29-.89.52-1.18,1.09-1.18,2.1.04,7.33.02,14.67.02,22Z" style="fill:#fff; stroke-width:0px;"/><path d="M53.13,66.98c0-2.7.03-5.39-.02-8.09-.02-.85.22-1.36.98-1.81,4.61-2.69,9.19-5.45,13.81-8.12.45-.26,1.31-.26,1.75,0,4.75,2.73,9.46,5.51,14.14,8.34.42.25.81.94.82,1.43.06,5.39.02,10.78.05,16.17,0,.77-.3,1.18-.94,1.56-4.65,2.72-9.27,5.49-13.93,8.19-.39.23-1.12.25-1.52.03-4.79-2.56-9.55-5.16-14.28-7.82-.42-.24-.82-.92-.84-1.4-.08-2.83-.04-5.65-.04-8.48Z" style="fill:#fff; stroke-width:0px;"/><path d="M53.13,82.49c2.57,1.49,4.85,2.82,7.14,4.14,2.56,1.49,5.13,2.94,7.66,4.48.79.48,1.37.48,2.16,0,4.33-2.57,8.69-5.09,13.04-7.62.41-.24.83-.46,1.42-.78.05.56.11.97.11,1.39,0,5.17-.02,10.34.02,15.51,0,.95-.27,1.51-1.12,2-4.51,2.61-8.99,5.27-13.45,7.96-.78.47-1.35.47-2.16.02-4.5-2.52-9.03-5.01-13.59-7.43-.96-.51-1.27-1.1-1.26-2.16.05-5.3.02-10.61.02-15.91v-1.61Z" style="fill:#fff; stroke-width:0px;"/><path d="M48.01,73.12c-2.34-1.28-4.46-2.44-6.58-3.6-2.75-1.5-5.49-3.03-8.26-4.49-.73-.38-.99-.83-.99-1.65.03-5.52.03-11.05,0-16.57,0-.82.29-1.26.98-1.67,4.61-2.69,9.19-5.45,13.81-8.13.41-.24,1.16-.34,1.53-.13,5.01,2.89,9.98,5.84,15.11,8.87-.47.3-.82.54-1.18.75-4.27,2.5-8.51,5.03-12.82,7.46-1.18.66-1.66,1.38-1.64,2.77.1,4.9.04,9.81.04,14.71v1.66Z" style="fill:#fff; stroke-width:0px;"/><path d="M88.63,73.6v-4.24c0-4.2-.04-8.39.03-12.59.02-1.09-.38-1.65-1.28-2.17-4.44-2.54-8.86-5.13-13.28-7.7-.37-.22-.73-.45-1.25-.77.74-.46,1.36-.85,1.98-1.23,4.17-2.48,8.35-4.94,12.5-7.45.69-.42,1.19-.44,1.89-.02,4.69,2.82,9.42,5.57,14.09,8.41.41.25.81.93.81,1.41.06,5.39.05,10.78.02,16.16,0,.42-.18,1.04-.48,1.22-4.9,2.97-9.84,5.88-15.05,8.97Z" style="fill:#fff; stroke-width:0px;"/><path d="M32.32,70.62c4.14,2.4,7.99,4.92,12.1,6.93,2.89,1.42,3.89,3.21,3.67,6.41-.32,4.61-.08,9.26-.08,14.05-.43-.18-.75-.27-1.03-.43-4.61-2.5-9.23-4.99-13.81-7.54-.44-.24-.92-.89-.92-1.36-.06-5.78-.04-11.56-.04-17.34,0-.16.05-.33.12-.73Z" style="fill:#fff; stroke-width:0px;"/><path d="M83.21,34.26c-1.17.69-2.14,1.27-3.12,1.84-3.81,2.23-7.61,4.47-11.44,6.65-.45.26-1.25.4-1.64.17-4.91-2.78-9.78-5.65-14.66-8.49-.12-.07-.25-.1-.57-.23,2.12-1.25,3.97-2.35,5.82-3.44,3-1.77,5.99-3.57,9.01-5.3.37-.21,1.05-.32,1.38-.13,4.93,2.85,9.82,5.76,14.72,8.66.11.07.23.13.51.27Z" style="fill:#fff; stroke-width:0px;"/><path d="M88.63,98.51c0-6.01,0-11.83.02-17.65,0-.33.2-.81.46-.96,4.92-2.92,9.87-5.8,14.96-8.78.05.43.1.71.1.99,0,5.43.02,10.86-.03,16.28,0,.5-.35,1.21-.75,1.46-4.64,2.81-9.31,5.56-13.98,8.32-.18.11-.39.18-.78.35Z" style="fill:#fff; stroke-width:0px;"/></svg>