<?xml version="1.0" encoding="UTF-8"?><svg id="a" xmlns="http://www.w3.org/2000/svg" viewBox="0 0 136.02 136.02"><path d="M4.46.78h127.1c2.03,0,3.68,1.65,3.68,3.68v127.1c0,2.03-1.65,3.68-3.68,3.68H4.46c-2.03,0-3.68-1.65-3.68-3.68V4.46C.78,2.43,2.43.78,4.46.78ZM123.16,9.2H12.91c-2.03,0-3.68,1.65-3.68,3.68v110.26c0,2.03,1.65,3.68,3.68,3.68h110.26c2.03,0,3.68-1.65,3.68-3.68V12.88c0-2.03-1.65-3.68-3.68-3.68Z" style="fill:#fff; stroke-width:0px;"/><path d="M102.35,101.3h-12.55c-.23-2.24-.45-4.43-.68-6.74-1.17,1.32-2.1,2.66-3.3,3.68-7.68,6.55-19.54,5.25-25.95-2.8-4.68-5.88-5.9-12.74-5.35-20.02.41-5.54,2.13-10.58,5.76-14.91,5.57-6.63,15.97-8.93,23.38-5,1.46.77,2.69,1.99,4.05,3.02v-24.83h14.64v67.58ZM87.9,77.47c0-1.53-.14-3.06-.25-4.58-.29-3.9-3.07-7.14-6.7-7.95-3.85-.86-7.81.83-9.7,4.34-2.82,5.26-2.92,10.73-.6,16.16,1.64,3.83,5.53,5.88,9.46,5.35,3.87-.52,6.62-3.21,7.35-7.45.33-1.92.52-5.87.45-5.87Z" style="fill:#fff; stroke-width:0px;"/><path d="M33.39,101.26V37.13h14.48v64.13h-14.48Z" style="fill:#fff; stroke-width:0px;"/></svg>